<?xml version="1.0" encoding="UTF-8" standalone="no"?>
<!DOCTYPE svg PUBLIC "-//W3C//DTD SVG 1.1//EN" "http://www.w3.org/Graphics/SVG/1.1/DTD/svg11.dtd">
<svg xmlns="http://www.w3.org/2000/svg" version="1.1" viewBox="0.00 0.00 356.00 276.00">
<g stroke-width="2.00" fill="none" stroke-linecap="butt">
<path stroke="#848181" vector-effect="non-scaling-stroke" d="
  M 344.93 63.09
  C 339.05 32.54 314.88 8.92 283.89 3.80
  Q 278.02 2.83 264.56 2.81
  Q 158.39 2.72 52.30 2.81
  A 1.55 1.53 19.5 0 0 51.11 3.37
  L 6.51 57.30
  A 3.55 3.53 -25.5 0 0 5.71 59.54
  L 5.71 269.50
  A 0.74 0.74 0.0 0 0 6.45 270.24
  Q 136.22 270.26 265.26 270.23
  Q 278.64 270.23 285.17 269.07
  C 315.41 263.71 339.65 239.73 345.07 209.43
  Q 346.23 202.95 346.24 189.49
  Q 346.28 136.25 346.23 83.00
  Q 346.22 69.79 344.93 63.09"
/>
<path stroke="#848181" vector-effect="non-scaling-stroke" d="
  M 333.40 63.52
  C 327.95 38.68 308.10 19.67 282.82 15.15
  Q 277.87 14.26 268.10 14.26
  Q 162.82 14.23 57.98 14.25
  A 2.37 2.35 -70.1 0 0 56.16 15.11
  Q 37.51 37.68 18.86 60.20
  C 17.24 62.17 17.04 63.56 17.04 66.00
  Q 17.04 161.25 17.05 257.68
  Q 17.05 258.85 18.22 258.85
  Q 144.50 258.71 271.50 258.75
  C 301.33 258.76 327.03 238.84 333.38 209.79
  Q 334.80 203.29 334.80 190.09
  Q 334.82 136.34 334.81 82.59
  Q 334.80 69.92 333.40 63.52"
/>
<path stroke="#848181" vector-effect="non-scaling-stroke" d="
  M 287.10 133.61
  A 0.24 0.24 0.0 0 1 287.10 133.16
  C 303.96 127.02 313.70 111.29 315.00 93.75
  C 317.12 65.24 300.80 45.05 274.50 36.49
  C 259.55 31.63 244.92 30.57 227.75 30.54
  Q 159.77 30.45 91.93 30.52
  A 1.87 1.87 0.0 0 0 90.48 31.21
  L 47.16 84.95
  A 0.47 0.46 -70.5 0 0 47.52 85.71
  Q 140.71 85.77 234.14 85.73
  C 242.04 85.73 252.09 87.93 253.01 97.47
  Q 254.14 109.13 243.25 112.17
  Q 238.39 113.53 236.75 113.53
  Q 141.76 113.54 46.87 113.53
  A 0.31 0.31 0.0 0 0 46.56 113.84
  L 46.55 241.98
  A 0.57 0.57 0.0 0 0 47.12 242.55
  Q 140.85 242.61 234.00 242.79
  Q 255.11 242.84 272.74 238.48
  C 304.72 230.58 321.04 210.32 319.44 176.76
  C 318.46 155.99 306.32 140.49 287.10 133.61"
/>
<path stroke="#848181" vector-effect="non-scaling-stroke" d="
  M 253.57 176.76
  C 256.35 163.11 245.42 158.91 234.42 158.91
  Q 176.02 158.92 113.41 158.92
  Q 112.62 158.92 112.62 159.71
  L 112.72 187.30
  A 0.74 0.74 0.0 0 0 113.46 188.03
  Q 173.36 187.99 233.37 188.02
  C 241.79 188.02 251.56 186.64 253.57 176.76"
/>
</g>
<path fill="#ffffff" d="
  M 0.00 0.00
  L 356.00 0.00
  L 356.00 276.00
  L 0.00 276.00
  L 0.00 0.00
  Z
  M 344.93 63.09
  C 339.05 32.54 314.88 8.92 283.89 3.80
  Q 278.02 2.83 264.56 2.81
  Q 158.39 2.72 52.30 2.81
  A 1.55 1.53 19.5 0 0 51.11 3.37
  L 6.51 57.30
  A 3.55 3.53 -25.5 0 0 5.71 59.54
  L 5.71 269.50
  A 0.74 0.74 0.0 0 0 6.45 270.24
  Q 136.22 270.26 265.26 270.23
  Q 278.64 270.23 285.17 269.07
  C 315.41 263.71 339.65 239.73 345.07 209.43
  Q 346.23 202.95 346.24 189.49
  Q 346.28 136.25 346.23 83.00
  Q 346.22 69.79 344.93 63.09
  Z"
/>
<path fill="#080302" d="
  M 283.89 3.80
  C 314.88 8.92 339.05 32.54 344.93 63.09
  Q 346.22 69.79 346.23 83.00
  Q 346.28 136.25 346.24 189.49
  Q 346.23 202.95 345.07 209.43
  C 339.65 239.73 315.41 263.71 285.17 269.07
  Q 278.64 270.23 265.26 270.23
  Q 136.22 270.26 6.45 270.24
  A 0.74 0.74 0.0 0 1 5.71 269.50
  L 5.71 59.54
  A 3.55 3.53 -25.5 0 1 6.51 57.30
  L 51.11 3.37
  A 1.55 1.53 19.5 0 1 52.30 2.81
  Q 158.39 2.72 264.56 2.81
  Q 278.02 2.83 283.89 3.80
  Z
  M 333.40 63.52
  C 327.95 38.68 308.10 19.67 282.82 15.15
  Q 277.87 14.26 268.10 14.26
  Q 162.82 14.23 57.98 14.25
  A 2.37 2.35 -70.1 0 0 56.16 15.11
  Q 37.51 37.68 18.86 60.20
  C 17.24 62.17 17.04 63.56 17.04 66.00
  Q 17.04 161.25 17.05 257.68
  Q 17.05 258.85 18.22 258.85
  Q 144.50 258.71 271.50 258.75
  C 301.33 258.76 327.03 238.84 333.38 209.79
  Q 334.80 203.29 334.80 190.09
  Q 334.82 136.34 334.81 82.59
  Q 334.80 69.92 333.40 63.52
  Z"
/>
<path fill="#ffffff" d="
  M 282.82 15.15
  C 308.10 19.67 327.95 38.68 333.40 63.52
  Q 334.80 69.92 334.81 82.59
  Q 334.82 136.34 334.80 190.09
  Q 334.80 203.29 333.38 209.79
  C 327.03 238.84 301.33 258.76 271.50 258.75
  Q 144.50 258.71 18.22 258.85
  Q 17.05 258.85 17.05 257.68
  Q 17.04 161.25 17.04 66.00
  C 17.04 63.56 17.24 62.17 18.86 60.20
  Q 37.51 37.68 56.16 15.11
  A 2.37 2.35 -70.1 0 1 57.98 14.25
  Q 162.82 14.23 268.10 14.26
  Q 277.87 14.26 282.82 15.15
  Z
  M 287.10 133.61
  A 0.24 0.24 0.0 0 1 287.10 133.16
  C 303.96 127.02 313.70 111.29 315.00 93.75
  C 317.12 65.24 300.80 45.05 274.50 36.49
  C 259.55 31.63 244.92 30.57 227.75 30.54
  Q 159.77 30.45 91.93 30.52
  A 1.87 1.87 0.0 0 0 90.48 31.21
  L 47.16 84.95
  A 0.47 0.46 -70.5 0 0 47.52 85.71
  Q 140.71 85.77 234.14 85.73
  C 242.04 85.73 252.09 87.93 253.01 97.47
  Q 254.14 109.13 243.25 112.17
  Q 238.39 113.53 236.75 113.53
  Q 141.76 113.54 46.87 113.53
  A 0.31 0.31 0.0 0 0 46.56 113.84
  L 46.55 241.98
  A 0.57 0.57 0.0 0 0 47.12 242.55
  Q 140.85 242.61 234.00 242.79
  Q 255.11 242.84 272.74 238.48
  C 304.72 230.58 321.04 210.32 319.44 176.76
  C 318.46 155.99 306.32 140.49 287.10 133.61
  Z"
/>
<path fill="#080302" d="
  M 287.10 133.61
  C 306.32 140.49 318.46 155.99 319.44 176.76
  C 321.04 210.32 304.72 230.58 272.74 238.48
  Q 255.11 242.84 234.00 242.79
  Q 140.85 242.61 47.12 242.55
  A 0.57 0.57 0.0 0 1 46.55 241.98
  L 46.56 113.84
  A 0.31 0.31 0.0 0 1 46.87 113.53
  Q 141.76 113.54 236.75 113.53
  Q 238.39 113.53 243.25 112.17
  Q 254.14 109.13 253.01 97.47
  C 252.09 87.93 242.04 85.73 234.14 85.73
  Q 140.71 85.77 47.52 85.71
  A 0.47 0.46 -70.5 0 1 47.16 84.95
  L 90.48 31.21
  A 1.87 1.87 0.0 0 1 91.93 30.52
  Q 159.77 30.45 227.75 30.54
  C 244.92 30.57 259.55 31.63 274.50 36.49
  C 300.80 45.05 317.12 65.24 315.00 93.75
  C 313.70 111.29 303.96 127.02 287.10 133.16
  A 0.24 0.24 0.0 0 0 287.10 133.61
  Z
  M 253.57 176.76
  C 256.35 163.11 245.42 158.91 234.42 158.91
  Q 176.02 158.92 113.41 158.92
  Q 112.62 158.92 112.62 159.71
  L 112.72 187.30
  A 0.74 0.74 0.0 0 0 113.46 188.03
  Q 173.36 187.99 233.37 188.02
  C 241.79 188.02 251.56 186.64 253.57 176.76
  Z"
/>
<path fill="#ffffff" d="
  M 234.42 158.91
  C 245.42 158.91 256.35 163.11 253.57 176.76
  C 251.56 186.64 241.79 188.02 233.37 188.02
  Q 173.36 187.99 113.46 188.03
  A 0.74 0.74 0.0 0 1 112.72 187.30
  L 112.62 159.71
  Q 112.62 158.92 113.41 158.92
  Q 176.02 158.92 234.42 158.91
  Z"
/>
</svg>
